<?xml version="1.0" standalone="no"?>
<!DOCTYPE svg PUBLIC "-//W3C//DTD SVG 20010904//EN"
 "http://www.w3.org/TR/2001/REC-SVG-20010904/DTD/svg10.dtd">
<svg version="1.0" xmlns="http://www.w3.org/2000/svg"
 width="225.000000pt" height="225.000000pt" viewBox="0 0 225.000000 225.000000"
 preserveAspectRatio="xMidYMid meet">

<g transform="translate(0.000000,225.000000) scale(0.100000,-0.100000)"
fill="#000000" stroke="none">
<path d="M1003 1945 c-158 -34 -308 -153 -376 -296 -35 -74 -57 -154 -57 -209
l0 -30 104 0 103 0 7 46 c15 109 93 211 199 260 53 25 74 29 147 29 70 -1 95
-5 141 -27 72 -33 134 -94 168 -167 22 -47 26 -70 26 -146 0 -76 -4 -98 -26
-146 -49 -104 -158 -185 -265 -197 l-44 -5 0 -103 0 -104 38 0 c114 0 262 71
357 171 105 111 155 236 155 384 0 358 -324 617 -677 540z"/>
<path d="M910 1165 l0 -105 105 0 105 0 0 105 0 105 -105 0 -105 0 0 -105z"/>
<path d="M610 1125 l0 -65 65 0 65 0 0 65 0 65 -65 0 -65 0 0 -65z"/>
<path d="M750 975 l0 -75 78 0 77 0 0 75 0 75 -77 0 -78 0 0 -75z"/>
<path d="M10 510 l0 -140 58 0 c65 0 131 26 156 61 10 15 16 44 16 80 0 97
-54 139 -177 139 l-53 0 0 -140z m154 76 c31 -20 43 -75 25 -117 -14 -35 -59
-59 -109 -59 l-30 0 0 101 0 102 45 -5 c25 -3 56 -13 69 -22z"/>
<path d="M284 635 c-4 -9 -2 -21 4 -27 16 -16 47 -5 47 17 0 26 -42 34 -51 10z"/>
<path d="M617 644 c-4 -4 -7 -16 -7 -26 0 -14 6 -19 23 -16 14 2 22 10 22 23
0 20 -25 32 -38 19z"/>
<path d="M1055 510 c0 -139 0 -140 23 -140 22 0 22 1 22 140 0 139 0 140 -22
140 -23 0 -23 -1 -23 -140z"/>
<path d="M1230 643 c-28 -10 -70 -56 -81 -90 -50 -152 159 -253 252 -121 28
39 31 113 5 152 -34 53 -116 81 -176 59z m93 -44 c110 -56 40 -226 -74 -179
-39 17 -59 46 -59 90 0 74 70 121 133 89z"/>
<path d="M720 590 c0 -20 -5 -30 -15 -30 -8 0 -15 -7 -15 -15 0 -8 6 -15 14
-15 10 0 15 -19 18 -66 4 -72 20 -94 65 -94 29 0 32 35 3 43 -17 4 -20 14 -20
61 0 49 2 56 20 56 13 0 20 7 20 19 0 14 -5 18 -20 14 -17 -5 -20 0 -20 26 0
26 -4 31 -25 31 -21 0 -25 -5 -25 -30z"/>
<path d="M419 555 c-54 -29 -59 -118 -10 -156 20 -16 36 -20 69 -16 46 5 55
-8 24 -36 -24 -22 -50 -22 -74 0 -17 15 -20 15 -34 2 -13 -14 -12 -17 5 -33
11 -10 38 -20 60 -23 35 -5 44 -2 71 25 30 30 30 31 30 139 0 102 -1 109 -20
109 -11 0 -20 -4 -20 -8 0 -5 -9 -4 -19 2 -26 14 -51 12 -82 -5z m83 -42 c35
-32 15 -93 -30 -93 -35 0 -52 17 -52 51 0 51 46 75 82 42z"/>
<path d="M884 560 c-30 -12 -36 -26 -18 -40 11 -10 18 -10 26 -2 19 19 56 14
68 -8 10 -18 8 -20 -27 -20 -57 0 -85 -23 -81 -68 2 -30 8 -38 31 -46 19 -7
37 -7 57 1 17 6 30 7 30 2 0 -5 9 -9 20 -9 18 0 20 7 20 75 0 67 -3 79 -25
100 -25 26 -62 31 -101 15z m80 -125 c-2 -14 -44 -34 -60 -28 -8 3 -14 14 -14
25 0 16 6 19 38 16 20 -2 36 -7 36 -13z"/>
<path d="M1508 555 c-87 -49 -50 -185 50 -185 23 0 49 7 62 18 20 16 21 19 6
31 -13 11 -20 11 -28 3 -22 -22 -66 -14 -84 14 -35 53 29 122 74 81 17 -16 20
-16 32 -2 31 37 -60 69 -112 40z"/>
<path d="M1705 558 c-34 -19 -44 -41 -45 -91 0 -38 5 -53 25 -72 30 -31 92
-34 125 -7 20 16 21 19 6 31 -13 11 -20 11 -28 3 -26 -26 -88 -8 -88 25 0 9
18 13 65 13 59 0 65 2 65 20 0 68 -69 110 -125 78z m75 -48 c10 -19 8 -20 -35
-20 -50 0 -52 2 -29 24 21 22 51 20 64 -4z"/>
<path d="M1901 557 c-14 -6 -26 -17 -28 -23 -5 -16 28 -27 41 -14 17 17 55 11
66 -10 10 -18 8 -20 -27 -20 -57 0 -85 -23 -81 -68 2 -30 8 -38 31 -46 19 -7
37 -7 57 1 17 6 30 7 30 2 0 -5 9 -9 20 -9 18 0 20 7 20 75 0 67 -3 79 -25
100 -27 27 -66 32 -104 12z m79 -122 c0 -17 -38 -35 -57 -28 -7 3 -13 14 -13
24 0 15 7 19 35 19 25 0 35 -4 35 -15z"/>
<path d="M2108 563 l-38 -4 0 -95 c0 -91 1 -94 23 -94 21 0 22 4 19 55 -4 63
15 105 48 105 28 0 40 -30 40 -99 0 -54 2 -61 20 -61 18 0 20 7 20 75 0 67 -3
79 -25 100 -24 25 -31 26 -107 18z"/>
<path d="M290 465 c0 -88 1 -95 20 -95 19 0 20 7 20 95 0 88 -1 95 -20 95 -19
0 -20 -7 -20 -95z"/>
<path d="M610 465 c0 -95 0 -95 25 -95 25 0 25 0 25 95 0 95 0 95 -25 95 -25
0 -25 0 -25 -95z"/>
</g>
</svg>
